G04 #@! TF.FileFunction,Legend,Top*
%FSLAX46Y46*%
G04 Gerber Fmt 4.6, Leading zero omitted, Abs format (unit mm)*
G04 Created by KiCad (PCBNEW 4.0.2-stable) date 2016-05-12 12:07:21 AM*
%MOMM*%
G01*
G04 APERTURE LIST*
%ADD10C,0.100000*%
%ADD11C,0.250000*%
%ADD12C,0.300000*%
%ADD13C,0.150000*%
G04 APERTURE END LIST*
D10*
D11*
X164809524Y-119452381D02*
X164333333Y-119452381D01*
X164285714Y-119928571D01*
X164333333Y-119880952D01*
X164428571Y-119833333D01*
X164666667Y-119833333D01*
X164761905Y-119880952D01*
X164809524Y-119928571D01*
X164857143Y-120023810D01*
X164857143Y-120261905D01*
X164809524Y-120357143D01*
X164761905Y-120404762D01*
X164666667Y-120452381D01*
X164428571Y-120452381D01*
X164333333Y-120404762D01*
X164285714Y-120357143D01*
X165142857Y-119452381D02*
X165476190Y-120452381D01*
X165809524Y-119452381D01*
X164238096Y-111500000D02*
X164142858Y-111452381D01*
X164000001Y-111452381D01*
X163857143Y-111500000D01*
X163761905Y-111595238D01*
X163714286Y-111690476D01*
X163666667Y-111880952D01*
X163666667Y-112023810D01*
X163714286Y-112214286D01*
X163761905Y-112309524D01*
X163857143Y-112404762D01*
X164000001Y-112452381D01*
X164095239Y-112452381D01*
X164238096Y-112404762D01*
X164285715Y-112357143D01*
X164285715Y-112023810D01*
X164095239Y-112023810D01*
X164714286Y-112452381D02*
X164714286Y-111452381D01*
X165285715Y-112452381D01*
X165285715Y-111452381D01*
X165761905Y-112452381D02*
X165761905Y-111452381D01*
X166000000Y-111452381D01*
X166142858Y-111500000D01*
X166238096Y-111595238D01*
X166285715Y-111690476D01*
X166333334Y-111880952D01*
X166333334Y-112023810D01*
X166285715Y-112214286D01*
X166238096Y-112309524D01*
X166142858Y-112404762D01*
X166000000Y-112452381D01*
X165761905Y-112452381D01*
D12*
X162483334Y-130478571D02*
X162483334Y-128978571D01*
X162916667Y-130050000D01*
X163350000Y-128978571D01*
X163350000Y-130478571D01*
X164526191Y-130478571D02*
X164526191Y-129692857D01*
X164464286Y-129550000D01*
X164340476Y-129478571D01*
X164092857Y-129478571D01*
X163969048Y-129550000D01*
X164526191Y-130407143D02*
X164402381Y-130478571D01*
X164092857Y-130478571D01*
X163969048Y-130407143D01*
X163907143Y-130264286D01*
X163907143Y-130121429D01*
X163969048Y-129978571D01*
X164092857Y-129907143D01*
X164402381Y-129907143D01*
X164526191Y-129835714D01*
X165021428Y-129478571D02*
X165330952Y-130478571D01*
X165640476Y-129478571D02*
X165330952Y-130478571D01*
X165207143Y-130835714D01*
X165145238Y-130907143D01*
X165021428Y-130978571D01*
X161771429Y-131521429D02*
X161833334Y-131450000D01*
X161957143Y-131378571D01*
X162266667Y-131378571D01*
X162390477Y-131450000D01*
X162452381Y-131521429D01*
X162514286Y-131664286D01*
X162514286Y-131807143D01*
X162452381Y-132021429D01*
X161709524Y-132878571D01*
X162514286Y-132878571D01*
X163319048Y-131378571D02*
X163442857Y-131378571D01*
X163566667Y-131450000D01*
X163628572Y-131521429D01*
X163690476Y-131664286D01*
X163752381Y-131950000D01*
X163752381Y-132307143D01*
X163690476Y-132592857D01*
X163628572Y-132735714D01*
X163566667Y-132807143D01*
X163442857Y-132878571D01*
X163319048Y-132878571D01*
X163195238Y-132807143D01*
X163133334Y-132735714D01*
X163071429Y-132592857D01*
X163009524Y-132307143D01*
X163009524Y-131950000D01*
X163071429Y-131664286D01*
X163133334Y-131521429D01*
X163195238Y-131450000D01*
X163319048Y-131378571D01*
X164990476Y-132878571D02*
X164247619Y-132878571D01*
X164619048Y-132878571D02*
X164619048Y-131378571D01*
X164495238Y-131592857D01*
X164371429Y-131735714D01*
X164247619Y-131807143D01*
X166104762Y-131378571D02*
X165857143Y-131378571D01*
X165733333Y-131450000D01*
X165671428Y-131521429D01*
X165547619Y-131735714D01*
X165485714Y-132021429D01*
X165485714Y-132592857D01*
X165547619Y-132735714D01*
X165609524Y-132807143D01*
X165733333Y-132878571D01*
X165980952Y-132878571D01*
X166104762Y-132807143D01*
X166166666Y-132735714D01*
X166228571Y-132592857D01*
X166228571Y-132235714D01*
X166166666Y-132092857D01*
X166104762Y-132021429D01*
X165980952Y-131950000D01*
X165733333Y-131950000D01*
X165609524Y-132021429D01*
X165547619Y-132092857D01*
X165485714Y-132235714D01*
X162000000Y-127678571D02*
X162000000Y-126178571D01*
X162500000Y-127250000D01*
X163000000Y-126178571D01*
X163000000Y-127678571D01*
X164571429Y-127535714D02*
X164500000Y-127607143D01*
X164285714Y-127678571D01*
X164142857Y-127678571D01*
X163928572Y-127607143D01*
X163785714Y-127464286D01*
X163714286Y-127321429D01*
X163642857Y-127035714D01*
X163642857Y-126821429D01*
X163714286Y-126535714D01*
X163785714Y-126392857D01*
X163928572Y-126250000D01*
X164142857Y-126178571D01*
X164285714Y-126178571D01*
X164500000Y-126250000D01*
X164571429Y-126321429D01*
X165214286Y-127678571D02*
X165214286Y-126178571D01*
X165571429Y-126178571D01*
X165785714Y-126250000D01*
X165928572Y-126392857D01*
X166000000Y-126535714D01*
X166071429Y-126821429D01*
X166071429Y-127035714D01*
X166000000Y-127321429D01*
X165928572Y-127464286D01*
X165785714Y-127607143D01*
X165571429Y-127678571D01*
X165214286Y-127678571D01*
X131178571Y-131214285D02*
X132678571Y-130714285D01*
X131178571Y-130214285D01*
X132607143Y-129142857D02*
X132678571Y-129285714D01*
X132678571Y-129571428D01*
X132607143Y-129714285D01*
X132464286Y-129785714D01*
X131892857Y-129785714D01*
X131750000Y-129714285D01*
X131678571Y-129571428D01*
X131678571Y-129285714D01*
X131750000Y-129142857D01*
X131892857Y-129071428D01*
X132035714Y-129071428D01*
X132178571Y-129785714D01*
X132678571Y-128428571D02*
X131678571Y-128428571D01*
X131964286Y-128428571D02*
X131821429Y-128357143D01*
X131750000Y-128285714D01*
X131678571Y-128142857D01*
X131678571Y-128000000D01*
X132607143Y-127571429D02*
X132678571Y-127428572D01*
X132678571Y-127142857D01*
X132607143Y-127000000D01*
X132464286Y-126928572D01*
X132392857Y-126928572D01*
X132250000Y-127000000D01*
X132178571Y-127142857D01*
X132178571Y-127357143D01*
X132107143Y-127500000D01*
X131964286Y-127571429D01*
X131892857Y-127571429D01*
X131750000Y-127500000D01*
X131678571Y-127357143D01*
X131678571Y-127142857D01*
X131750000Y-127000000D01*
X132678571Y-126285714D02*
X131678571Y-126285714D01*
X131178571Y-126285714D02*
X131250000Y-126357143D01*
X131321429Y-126285714D01*
X131250000Y-126214286D01*
X131178571Y-126285714D01*
X131321429Y-126285714D01*
X132678571Y-125357142D02*
X132607143Y-125500000D01*
X132535714Y-125571428D01*
X132392857Y-125642857D01*
X131964286Y-125642857D01*
X131821429Y-125571428D01*
X131750000Y-125500000D01*
X131678571Y-125357142D01*
X131678571Y-125142857D01*
X131750000Y-125000000D01*
X131821429Y-124928571D01*
X131964286Y-124857142D01*
X132392857Y-124857142D01*
X132535714Y-124928571D01*
X132607143Y-125000000D01*
X132678571Y-125142857D01*
X132678571Y-125357142D01*
X131678571Y-124214285D02*
X132678571Y-124214285D01*
X131821429Y-124214285D02*
X131750000Y-124142857D01*
X131678571Y-123999999D01*
X131678571Y-123785714D01*
X131750000Y-123642857D01*
X131892857Y-123571428D01*
X132678571Y-123571428D01*
X132678571Y-120928571D02*
X132678571Y-121785714D01*
X132678571Y-121357142D02*
X131178571Y-121357142D01*
X131392857Y-121499999D01*
X131535714Y-121642857D01*
X131607143Y-121785714D01*
X129678571Y-131595237D02*
X128178571Y-131595237D01*
X128178571Y-131285713D01*
X128250000Y-131099999D01*
X128392857Y-130976190D01*
X128535714Y-130914285D01*
X128821429Y-130852380D01*
X129035714Y-130852380D01*
X129321429Y-130914285D01*
X129464286Y-130976190D01*
X129607143Y-131099999D01*
X129678571Y-131285713D01*
X129678571Y-131595237D01*
X129678571Y-130295237D02*
X128678571Y-130295237D01*
X128178571Y-130295237D02*
X128250000Y-130357142D01*
X128321429Y-130295237D01*
X128250000Y-130233332D01*
X128178571Y-130295237D01*
X128321429Y-130295237D01*
X128678571Y-129119046D02*
X129892857Y-129119046D01*
X130035714Y-129180951D01*
X130107143Y-129242856D01*
X130178571Y-129366665D01*
X130178571Y-129552380D01*
X130107143Y-129676189D01*
X129607143Y-129119046D02*
X129678571Y-129242856D01*
X129678571Y-129490475D01*
X129607143Y-129614284D01*
X129535714Y-129676189D01*
X129392857Y-129738094D01*
X128964286Y-129738094D01*
X128821429Y-129676189D01*
X128750000Y-129614284D01*
X128678571Y-129490475D01*
X128678571Y-129242856D01*
X128750000Y-129119046D01*
X129678571Y-128499999D02*
X128678571Y-128499999D01*
X128178571Y-128499999D02*
X128250000Y-128561904D01*
X128321429Y-128499999D01*
X128250000Y-128438094D01*
X128178571Y-128499999D01*
X128321429Y-128499999D01*
X128678571Y-128066665D02*
X128678571Y-127571427D01*
X128178571Y-127880951D02*
X129464286Y-127880951D01*
X129607143Y-127819046D01*
X129678571Y-127695237D01*
X129678571Y-127571427D01*
X129678571Y-126580951D02*
X128892857Y-126580951D01*
X128750000Y-126642856D01*
X128678571Y-126766666D01*
X128678571Y-127014285D01*
X128750000Y-127138094D01*
X129607143Y-126580951D02*
X129678571Y-126704761D01*
X129678571Y-127014285D01*
X129607143Y-127138094D01*
X129464286Y-127199999D01*
X129321429Y-127199999D01*
X129178571Y-127138094D01*
X129107143Y-127014285D01*
X129107143Y-126704761D01*
X129035714Y-126580951D01*
X129678571Y-125776190D02*
X129607143Y-125899999D01*
X129464286Y-125961904D01*
X128178571Y-125961904D01*
X128178571Y-124476190D02*
X128178571Y-123733333D01*
X129678571Y-124104762D02*
X128178571Y-124104762D01*
X129678571Y-123300000D02*
X128178571Y-123300000D01*
X129678571Y-122742857D02*
X128892857Y-122742857D01*
X128750000Y-122804762D01*
X128678571Y-122928572D01*
X128678571Y-123114286D01*
X128750000Y-123238095D01*
X128821429Y-123300000D01*
X129607143Y-121628572D02*
X129678571Y-121752382D01*
X129678571Y-122000001D01*
X129607143Y-122123810D01*
X129464286Y-122185715D01*
X128892857Y-122185715D01*
X128750000Y-122123810D01*
X128678571Y-122000001D01*
X128678571Y-121752382D01*
X128750000Y-121628572D01*
X128892857Y-121566667D01*
X129035714Y-121566667D01*
X129178571Y-122185715D01*
X129678571Y-121009524D02*
X128678571Y-121009524D01*
X128964286Y-121009524D02*
X128821429Y-120947619D01*
X128750000Y-120885715D01*
X128678571Y-120761905D01*
X128678571Y-120638096D01*
X129678571Y-120204762D02*
X128678571Y-120204762D01*
X128821429Y-120204762D02*
X128750000Y-120142857D01*
X128678571Y-120019048D01*
X128678571Y-119833334D01*
X128750000Y-119709524D01*
X128892857Y-119647619D01*
X129678571Y-119647619D01*
X128892857Y-119647619D02*
X128750000Y-119585715D01*
X128678571Y-119461905D01*
X128678571Y-119276191D01*
X128750000Y-119152381D01*
X128892857Y-119090476D01*
X129678571Y-119090476D01*
X129678571Y-118285715D02*
X129607143Y-118409524D01*
X129535714Y-118471429D01*
X129392857Y-118533334D01*
X128964286Y-118533334D01*
X128821429Y-118471429D01*
X128750000Y-118409524D01*
X128678571Y-118285715D01*
X128678571Y-118100001D01*
X128750000Y-117976191D01*
X128821429Y-117914286D01*
X128964286Y-117852382D01*
X129392857Y-117852382D01*
X129535714Y-117914286D01*
X129607143Y-117976191D01*
X129678571Y-118100001D01*
X129678571Y-118285715D01*
X129678571Y-117295239D02*
X128678571Y-117295239D01*
X128821429Y-117295239D02*
X128750000Y-117233334D01*
X128678571Y-117109525D01*
X128678571Y-116923811D01*
X128750000Y-116800001D01*
X128892857Y-116738096D01*
X129678571Y-116738096D01*
X128892857Y-116738096D02*
X128750000Y-116676192D01*
X128678571Y-116552382D01*
X128678571Y-116366668D01*
X128750000Y-116242858D01*
X128892857Y-116180953D01*
X129678571Y-116180953D01*
X129607143Y-115066668D02*
X129678571Y-115190478D01*
X129678571Y-115438097D01*
X129607143Y-115561906D01*
X129464286Y-115623811D01*
X128892857Y-115623811D01*
X128750000Y-115561906D01*
X128678571Y-115438097D01*
X128678571Y-115190478D01*
X128750000Y-115066668D01*
X128892857Y-115004763D01*
X129035714Y-115004763D01*
X129178571Y-115623811D01*
X128678571Y-114633334D02*
X128678571Y-114138096D01*
X128178571Y-114447620D02*
X129464286Y-114447620D01*
X129607143Y-114385715D01*
X129678571Y-114261906D01*
X129678571Y-114138096D01*
X129607143Y-113209525D02*
X129678571Y-113333335D01*
X129678571Y-113580954D01*
X129607143Y-113704763D01*
X129464286Y-113766668D01*
X128892857Y-113766668D01*
X128750000Y-113704763D01*
X128678571Y-113580954D01*
X128678571Y-113333335D01*
X128750000Y-113209525D01*
X128892857Y-113147620D01*
X129035714Y-113147620D01*
X129178571Y-113766668D01*
X129678571Y-112590477D02*
X128678571Y-112590477D01*
X128964286Y-112590477D02*
X128821429Y-112528572D01*
X128750000Y-112466668D01*
X128678571Y-112342858D01*
X128678571Y-112219049D01*
D11*
X144200000Y-97404762D02*
X144371429Y-97452381D01*
X144657143Y-97452381D01*
X144771429Y-97404762D01*
X144828572Y-97357143D01*
X144885715Y-97261905D01*
X144885715Y-97166667D01*
X144828572Y-97071429D01*
X144771429Y-97023810D01*
X144657143Y-96976190D01*
X144428572Y-96928571D01*
X144314286Y-96880952D01*
X144257143Y-96833333D01*
X144200000Y-96738095D01*
X144200000Y-96642857D01*
X144257143Y-96547619D01*
X144314286Y-96500000D01*
X144428572Y-96452381D01*
X144714286Y-96452381D01*
X144885715Y-96500000D01*
X145857143Y-97404762D02*
X145742857Y-97452381D01*
X145514286Y-97452381D01*
X145400000Y-97404762D01*
X145342857Y-97309524D01*
X145342857Y-96928571D01*
X145400000Y-96833333D01*
X145514286Y-96785714D01*
X145742857Y-96785714D01*
X145857143Y-96833333D01*
X145914286Y-96928571D01*
X145914286Y-97023810D01*
X145342857Y-97119048D01*
X146428571Y-96785714D02*
X146428571Y-97452381D01*
X146428571Y-96880952D02*
X146485714Y-96833333D01*
X146600000Y-96785714D01*
X146771428Y-96785714D01*
X146885714Y-96833333D01*
X146942857Y-96928571D01*
X146942857Y-97452381D01*
X147457142Y-97404762D02*
X147571428Y-97452381D01*
X147800000Y-97452381D01*
X147914285Y-97404762D01*
X147971428Y-97309524D01*
X147971428Y-97261905D01*
X147914285Y-97166667D01*
X147800000Y-97119048D01*
X147628571Y-97119048D01*
X147514285Y-97071429D01*
X147457142Y-96976190D01*
X147457142Y-96928571D01*
X147514285Y-96833333D01*
X147628571Y-96785714D01*
X147800000Y-96785714D01*
X147914285Y-96833333D01*
X148657143Y-97452381D02*
X148542857Y-97404762D01*
X148485714Y-97357143D01*
X148428571Y-97261905D01*
X148428571Y-96976190D01*
X148485714Y-96880952D01*
X148542857Y-96833333D01*
X148657143Y-96785714D01*
X148828571Y-96785714D01*
X148942857Y-96833333D01*
X149000000Y-96880952D01*
X149057143Y-96976190D01*
X149057143Y-97261905D01*
X149000000Y-97357143D01*
X148942857Y-97404762D01*
X148828571Y-97452381D01*
X148657143Y-97452381D01*
X149571428Y-97452381D02*
X149571428Y-96785714D01*
X149571428Y-96976190D02*
X149628571Y-96880952D01*
X149685714Y-96833333D01*
X149800000Y-96785714D01*
X149914285Y-96785714D01*
D13*
X164000000Y-116000000D02*
X166000000Y-116000000D01*
X166000000Y-116000000D02*
X166000000Y-118000000D01*
X166000000Y-118000000D02*
X164000000Y-118000000D01*
X164000000Y-118000000D02*
X164000000Y-116000000D01*
X163500000Y-115000000D02*
X163500000Y-113500000D01*
X163500000Y-113500000D02*
X165000000Y-113500000D01*
X158048000Y-123762000D02*
X156778000Y-128588000D01*
X151190000Y-128588000D02*
X155508000Y-128588000D01*
X151190000Y-123508000D02*
X149920000Y-128588000D01*
X152968000Y-117412000D02*
X151444000Y-122492000D01*
X154238000Y-117412000D02*
X158048000Y-117412000D01*
X152714000Y-123000000D02*
X156778000Y-123000000D01*
X159318000Y-117666000D02*
X158302000Y-122746000D01*
X160080000Y-128715000D02*
G75*
G03X160080000Y-128715000I-635000J0D01*
G01*
X151190000Y-128715000D02*
X155635000Y-128715000D01*
X149920000Y-113475000D02*
X148650000Y-113475000D01*
X148650000Y-113475000D02*
X148650000Y-132525000D01*
X148650000Y-132525000D02*
X149920000Y-132525000D01*
X160080000Y-132525000D02*
X161350000Y-132525000D01*
X161350000Y-132525000D02*
X161350000Y-113475000D01*
X161350000Y-113475000D02*
X160080000Y-113475000D01*
X149920000Y-132525000D02*
X160080000Y-132525000D01*
X160080000Y-113475000D02*
X149920000Y-113475000D01*
X152587000Y-123000000D02*
X156905000Y-123000000D01*
X158429000Y-122492000D02*
X159318000Y-117539000D01*
X154111000Y-117412000D02*
X158048000Y-117412000D01*
X151444000Y-122365000D02*
X152841000Y-117412000D01*
X151190000Y-123508000D02*
X149920000Y-128715000D01*
X144048000Y-123762000D02*
X142778000Y-128588000D01*
X137190000Y-128588000D02*
X141508000Y-128588000D01*
X137190000Y-123508000D02*
X135920000Y-128588000D01*
X138968000Y-117412000D02*
X137444000Y-122492000D01*
X140238000Y-117412000D02*
X144048000Y-117412000D01*
X138714000Y-123000000D02*
X142778000Y-123000000D01*
X145318000Y-117666000D02*
X144302000Y-122746000D01*
X146080000Y-128715000D02*
G75*
G03X146080000Y-128715000I-635000J0D01*
G01*
X137190000Y-128715000D02*
X141635000Y-128715000D01*
X135920000Y-113475000D02*
X134650000Y-113475000D01*
X134650000Y-113475000D02*
X134650000Y-132525000D01*
X134650000Y-132525000D02*
X135920000Y-132525000D01*
X146080000Y-132525000D02*
X147350000Y-132525000D01*
X147350000Y-132525000D02*
X147350000Y-113475000D01*
X147350000Y-113475000D02*
X146080000Y-113475000D01*
X135920000Y-132525000D02*
X146080000Y-132525000D01*
X146080000Y-113475000D02*
X135920000Y-113475000D01*
X138587000Y-123000000D02*
X142905000Y-123000000D01*
X144429000Y-122492000D02*
X145318000Y-117539000D01*
X140111000Y-117412000D02*
X144048000Y-117412000D01*
X137444000Y-122365000D02*
X138841000Y-117412000D01*
X137190000Y-123508000D02*
X135920000Y-128715000D01*
X166295000Y-102135000D02*
X165025000Y-102135000D01*
X166295000Y-109485000D02*
X165025000Y-109485000D01*
X128685000Y-109485000D02*
X129955000Y-109485000D01*
X128685000Y-102135000D02*
X129955000Y-102135000D01*
X166295000Y-102135000D02*
X166295000Y-109485000D01*
X128685000Y-102135000D02*
X128685000Y-109485000D01*
X165025000Y-102135000D02*
X165025000Y-101200000D01*
X157540000Y-94730000D02*
X162620000Y-94730000D01*
X162620000Y-94730000D02*
X162620000Y-97270000D01*
X162620000Y-97270000D02*
X157540000Y-97270000D01*
X157540000Y-97270000D02*
X157540000Y-94730000D01*
X157540000Y-96000000D02*
X156270000Y-96000000D01*
X162620000Y-96000000D02*
X163890000Y-96000000D01*
X149460000Y-100270000D02*
X144380000Y-100270000D01*
X144380000Y-100270000D02*
X144380000Y-97730000D01*
X144380000Y-97730000D02*
X149460000Y-97730000D01*
X149460000Y-97730000D02*
X149460000Y-100270000D01*
X149460000Y-99000000D02*
X150730000Y-99000000D01*
X144380000Y-99000000D02*
X143110000Y-99000000D01*
X136460000Y-97270000D02*
X131380000Y-97270000D01*
X131380000Y-97270000D02*
X131380000Y-94730000D01*
X131380000Y-94730000D02*
X136460000Y-94730000D01*
X136460000Y-94730000D02*
X136460000Y-97270000D01*
X136460000Y-96000000D02*
X137730000Y-96000000D01*
X131380000Y-96000000D02*
X130110000Y-96000000D01*
X140928571Y-106166667D02*
X141404762Y-106166667D01*
X140833333Y-106452381D02*
X141166666Y-105452381D01*
X141500000Y-106452381D01*
X141690476Y-105452381D02*
X142261905Y-105452381D01*
X141976190Y-106452381D02*
X141976190Y-105452381D01*
X142595238Y-106452381D02*
X142595238Y-105452381D01*
X142928572Y-106166667D01*
X143261905Y-105452381D01*
X143261905Y-106452381D01*
X143738095Y-105928571D02*
X144071429Y-105928571D01*
X144214286Y-106452381D02*
X143738095Y-106452381D01*
X143738095Y-105452381D01*
X144214286Y-105452381D01*
X145166667Y-105500000D02*
X145071429Y-105452381D01*
X144928572Y-105452381D01*
X144785714Y-105500000D01*
X144690476Y-105595238D01*
X144642857Y-105690476D01*
X144595238Y-105880952D01*
X144595238Y-106023810D01*
X144642857Y-106214286D01*
X144690476Y-106309524D01*
X144785714Y-106404762D01*
X144928572Y-106452381D01*
X145023810Y-106452381D01*
X145166667Y-106404762D01*
X145214286Y-106357143D01*
X145214286Y-106023810D01*
X145023810Y-106023810D01*
X145595238Y-106166667D02*
X146071429Y-106166667D01*
X145500000Y-106452381D02*
X145833333Y-105452381D01*
X146166667Y-106452381D01*
X146404762Y-105452381D02*
X147023810Y-105452381D01*
X146690476Y-105833333D01*
X146833334Y-105833333D01*
X146928572Y-105880952D01*
X146976191Y-105928571D01*
X147023810Y-106023810D01*
X147023810Y-106261905D01*
X146976191Y-106357143D01*
X146928572Y-106404762D01*
X146833334Y-106452381D01*
X146547619Y-106452381D01*
X146452381Y-106404762D01*
X146404762Y-106357143D01*
X147404762Y-105547619D02*
X147452381Y-105500000D01*
X147547619Y-105452381D01*
X147785715Y-105452381D01*
X147880953Y-105500000D01*
X147928572Y-105547619D01*
X147976191Y-105642857D01*
X147976191Y-105738095D01*
X147928572Y-105880952D01*
X147357143Y-106452381D01*
X147976191Y-106452381D01*
X148547619Y-105880952D02*
X148452381Y-105833333D01*
X148404762Y-105785714D01*
X148357143Y-105690476D01*
X148357143Y-105642857D01*
X148404762Y-105547619D01*
X148452381Y-105500000D01*
X148547619Y-105452381D01*
X148738096Y-105452381D01*
X148833334Y-105500000D01*
X148880953Y-105547619D01*
X148928572Y-105642857D01*
X148928572Y-105690476D01*
X148880953Y-105785714D01*
X148833334Y-105833333D01*
X148738096Y-105880952D01*
X148547619Y-105880952D01*
X148452381Y-105928571D01*
X148404762Y-105976190D01*
X148357143Y-106071429D01*
X148357143Y-106261905D01*
X148404762Y-106357143D01*
X148452381Y-106404762D01*
X148547619Y-106452381D01*
X148738096Y-106452381D01*
X148833334Y-106404762D01*
X148880953Y-106357143D01*
X148928572Y-106261905D01*
X148928572Y-106071429D01*
X148880953Y-105976190D01*
X148833334Y-105928571D01*
X148738096Y-105880952D01*
X149357143Y-106071429D02*
X150119048Y-106071429D01*
X150595238Y-105785714D02*
X150595238Y-106785714D01*
X150595238Y-105833333D02*
X150690476Y-105785714D01*
X150880953Y-105785714D01*
X150976191Y-105833333D01*
X151023810Y-105880952D01*
X151071429Y-105976190D01*
X151071429Y-106261905D01*
X151023810Y-106357143D01*
X150976191Y-106404762D01*
X150880953Y-106452381D01*
X150690476Y-106452381D01*
X150595238Y-106404762D01*
X159833334Y-96452381D02*
X159500000Y-95976190D01*
X159261905Y-96452381D02*
X159261905Y-95452381D01*
X159642858Y-95452381D01*
X159738096Y-95500000D01*
X159785715Y-95547619D01*
X159833334Y-95642857D01*
X159833334Y-95785714D01*
X159785715Y-95880952D01*
X159738096Y-95928571D01*
X159642858Y-95976190D01*
X159261905Y-95976190D01*
X160785715Y-96452381D02*
X160214286Y-96452381D01*
X160500000Y-96452381D02*
X160500000Y-95452381D01*
X160404762Y-95595238D01*
X160309524Y-95690476D01*
X160214286Y-95738095D01*
X146833334Y-99452381D02*
X146500000Y-98976190D01*
X146261905Y-99452381D02*
X146261905Y-98452381D01*
X146642858Y-98452381D01*
X146738096Y-98500000D01*
X146785715Y-98547619D01*
X146833334Y-98642857D01*
X146833334Y-98785714D01*
X146785715Y-98880952D01*
X146738096Y-98928571D01*
X146642858Y-98976190D01*
X146261905Y-98976190D01*
X147214286Y-98547619D02*
X147261905Y-98500000D01*
X147357143Y-98452381D01*
X147595239Y-98452381D01*
X147690477Y-98500000D01*
X147738096Y-98547619D01*
X147785715Y-98642857D01*
X147785715Y-98738095D01*
X147738096Y-98880952D01*
X147166667Y-99452381D01*
X147785715Y-99452381D01*
X133833334Y-96452381D02*
X133500000Y-95976190D01*
X133261905Y-96452381D02*
X133261905Y-95452381D01*
X133642858Y-95452381D01*
X133738096Y-95500000D01*
X133785715Y-95547619D01*
X133833334Y-95642857D01*
X133833334Y-95785714D01*
X133785715Y-95880952D01*
X133738096Y-95928571D01*
X133642858Y-95976190D01*
X133261905Y-95976190D01*
X134166667Y-95452381D02*
X134785715Y-95452381D01*
X134452381Y-95833333D01*
X134595239Y-95833333D01*
X134690477Y-95880952D01*
X134738096Y-95928571D01*
X134785715Y-96023810D01*
X134785715Y-96261905D01*
X134738096Y-96357143D01*
X134690477Y-96404762D01*
X134595239Y-96452381D01*
X134309524Y-96452381D01*
X134214286Y-96404762D01*
X134166667Y-96357143D01*
M02*
