G04 #@! TF.FileFunction,Copper,L1,Top,Signal*
%FSLAX46Y46*%
G04 Gerber Fmt 4.6, Leading zero omitted, Abs format (unit mm)*
G04 Created by KiCad (PCBNEW 4.0.2-stable) date 2016-05-12 12:07:21 AM*
%MOMM*%
G01*
G04 APERTURE LIST*
%ADD10C,0.100000*%
%ADD11R,1.350000X1.350000*%
%ADD12C,1.350000*%
%ADD13C,2.032000*%
%ADD14R,2.032000X2.032000*%
%ADD15R,1.600000X1.600000*%
%ADD16O,1.600000X1.600000*%
%ADD17C,1.998980*%
%ADD18C,0.600000*%
%ADD19C,0.250000*%
G04 APERTURE END LIST*
D10*
D11*
X165000000Y-115000000D03*
D12*
X165000000Y-117000000D03*
D13*
X160080000Y-130620000D03*
X160080000Y-115380000D03*
D14*
X149920000Y-130620000D03*
D13*
X152460000Y-130620000D03*
X155000000Y-130620000D03*
X157540000Y-130620000D03*
X157540000Y-115380000D03*
X155000000Y-115380000D03*
X152460000Y-115380000D03*
X149920000Y-115380000D03*
X146080000Y-130620000D03*
X146080000Y-115380000D03*
D14*
X135920000Y-130620000D03*
D13*
X138460000Y-130620000D03*
X141000000Y-130620000D03*
X143540000Y-130620000D03*
X143540000Y-115380000D03*
X141000000Y-115380000D03*
X138460000Y-115380000D03*
X135920000Y-115380000D03*
D15*
X164000000Y-102000000D03*
D16*
X161460000Y-102000000D03*
X158920000Y-102000000D03*
X156380000Y-102000000D03*
X153840000Y-102000000D03*
X151300000Y-102000000D03*
X148760000Y-102000000D03*
X146220000Y-102000000D03*
X143680000Y-102000000D03*
X141140000Y-102000000D03*
X138600000Y-102000000D03*
X136060000Y-102000000D03*
X133520000Y-102000000D03*
X130980000Y-102000000D03*
X130980000Y-109620000D03*
X133520000Y-109620000D03*
X136060000Y-109620000D03*
X138600000Y-109620000D03*
X141140000Y-109620000D03*
X143680000Y-109620000D03*
X146220000Y-109620000D03*
X148760000Y-109620000D03*
X151300000Y-109620000D03*
X153840000Y-109620000D03*
X156380000Y-109620000D03*
X158920000Y-109620000D03*
X161460000Y-109620000D03*
X164000000Y-109620000D03*
D17*
X155000000Y-96000000D03*
X165160000Y-96000000D03*
X152000000Y-99000000D03*
X141840000Y-99000000D03*
X139000000Y-96000000D03*
X128840000Y-96000000D03*
D18*
X143000000Y-108000000D03*
X166000000Y-100000000D03*
X149000000Y-105000000D03*
X151000000Y-105000000D03*
X149000000Y-99000000D03*
D19*
X143680000Y-102000000D02*
X143680000Y-102320000D01*
X143680000Y-102320000D02*
X143000000Y-103000000D01*
X143000000Y-103000000D02*
X143000000Y-108000000D01*
X135920000Y-130620000D02*
X135920000Y-119920000D01*
X135980000Y-107000000D02*
X138600000Y-109620000D01*
X130000000Y-107000000D02*
X135980000Y-107000000D01*
X129000000Y-108000000D02*
X130000000Y-107000000D01*
X129000000Y-113000000D02*
X129000000Y-108000000D01*
X135920000Y-119920000D02*
X129000000Y-113000000D01*
X135920000Y-130620000D02*
X135920000Y-129080000D01*
X150000000Y-129000000D02*
X150000000Y-130540000D01*
X149000000Y-128000000D02*
X150000000Y-129000000D01*
X137000000Y-128000000D02*
X149000000Y-128000000D01*
X135920000Y-129080000D02*
X137000000Y-128000000D01*
X150000000Y-130540000D02*
X149920000Y-130620000D01*
X138460000Y-130620000D02*
X138460000Y-132460000D01*
X151000000Y-133000000D02*
X152460000Y-131540000D01*
X139000000Y-133000000D02*
X151000000Y-133000000D01*
X138460000Y-132460000D02*
X139000000Y-133000000D01*
X152460000Y-131540000D02*
X152460000Y-130620000D01*
X155000000Y-115380000D02*
X155000000Y-114000000D01*
X161460000Y-103540000D02*
X161460000Y-102000000D01*
X157000000Y-108000000D02*
X161460000Y-103540000D01*
X156000000Y-108000000D02*
X157000000Y-108000000D01*
X155000000Y-109000000D02*
X156000000Y-108000000D01*
X155000000Y-114000000D02*
X155000000Y-109000000D01*
X130980000Y-102000000D02*
X130980000Y-103980000D01*
X140000000Y-112000000D02*
X139000000Y-113000000D01*
X140000000Y-109000000D02*
X140000000Y-112000000D01*
X137000000Y-106000000D02*
X140000000Y-109000000D01*
X133000000Y-106000000D02*
X137000000Y-106000000D01*
X130980000Y-103980000D02*
X133000000Y-106000000D01*
X138460000Y-115380000D02*
X138460000Y-113540000D01*
X151000000Y-113000000D02*
X152460000Y-114460000D01*
X139000000Y-113000000D02*
X151000000Y-113000000D01*
X138460000Y-113540000D02*
X139000000Y-113000000D01*
X152460000Y-114460000D02*
X152460000Y-115380000D01*
X135920000Y-115380000D02*
X133380000Y-115380000D01*
X130980000Y-112980000D02*
X130980000Y-109620000D01*
X133380000Y-115380000D02*
X130980000Y-112980000D01*
X135920000Y-115380000D02*
X135920000Y-116920000D01*
X149920000Y-117080000D02*
X149920000Y-115380000D01*
X149000000Y-118000000D02*
X149920000Y-117080000D01*
X137000000Y-118000000D02*
X149000000Y-118000000D01*
X135920000Y-116920000D02*
X137000000Y-118000000D01*
X165160000Y-96000000D02*
X165160000Y-98840000D01*
X164000000Y-100000000D02*
X164000000Y-102000000D01*
X165160000Y-98840000D02*
X164000000Y-100000000D01*
X165000000Y-117000000D02*
X163000000Y-117000000D01*
X166000000Y-111000000D02*
X166000000Y-100000000D01*
X165000000Y-112000000D02*
X166000000Y-111000000D01*
X164000000Y-112000000D02*
X165000000Y-112000000D01*
X162000000Y-114000000D02*
X164000000Y-112000000D01*
X162000000Y-116000000D02*
X162000000Y-114000000D01*
X163000000Y-117000000D02*
X162000000Y-116000000D01*
X148760000Y-102000000D02*
X148000000Y-102000000D01*
X148000000Y-102000000D02*
X143680000Y-106320000D01*
X143680000Y-106320000D02*
X143680000Y-109620000D01*
X152000000Y-99000000D02*
X151760000Y-99000000D01*
X151760000Y-99000000D02*
X148760000Y-102000000D01*
X155000000Y-96000000D02*
X152000000Y-99000000D01*
X148760000Y-105240000D02*
X148760000Y-109620000D01*
X149000000Y-105000000D02*
X148760000Y-105240000D01*
X141840000Y-99000000D02*
X149000000Y-99000000D01*
X151300000Y-105300000D02*
X151300000Y-109620000D01*
X151000000Y-105000000D02*
X151300000Y-105300000D01*
X139000000Y-96000000D02*
X139000000Y-96160000D01*
X139000000Y-96160000D02*
X141840000Y-99000000D01*
M02*
