M48
;DRILL file {KiCad 4.0.2-stable} date 2016-05-12 12:18:24 AM
;FORMAT={2:4/ absolute / inch / suppress leading zeros}
FMAT,2
INCH,TZ
T1C0.016
T2C0.031
T3C0.036
T4C0.039
%
G90
G05
M72
T1
X56299Y-42520
X58661Y-38976
X58661Y-41339
X59449Y-41339
X65354Y-39370
T2
X51567Y-40157
X51567Y-43157
X52567Y-40157
X52567Y-43157
X53567Y-40157
X53567Y-43157
X54567Y-40157
X54567Y-43157
X55567Y-40157
X55567Y-43157
X56567Y-40157
X56567Y-43157
X57567Y-40157
X57567Y-43157
X58567Y-40157
X58567Y-43157
X59567Y-40157
X59567Y-43157
X60567Y-40157
X60567Y-43157
X61567Y-40157
X61567Y-43157
X62567Y-40157
X62567Y-43157
X63567Y-40157
X63567Y-43157
X64567Y-40157
X64567Y-43157
X64961Y-45276
X64961Y-46063
T3
X53512Y-45425
X53512Y-51425
X54512Y-45425
X54512Y-51425
X55512Y-45425
X55512Y-51425
X56512Y-45425
X56512Y-51425
X57512Y-45425
X57512Y-51425
X59024Y-45425
X59024Y-51425
X60024Y-45425
X60024Y-51425
X61024Y-45425
X61024Y-51425
X62024Y-45425
X62024Y-51425
X63024Y-45425
X63024Y-51425
T4
X50724Y-37795
X54724Y-37795
X55843Y-38976
X59843Y-38976
X61024Y-37795
X65024Y-37795
T0
M30
