G04 #@! TF.FileFunction,Copper,L2,Bot,Signal*
%FSLAX46Y46*%
G04 Gerber Fmt 4.6, Leading zero omitted, Abs format (unit mm)*
G04 Created by KiCad (PCBNEW 4.0.2-stable) date 2016-05-12 12:07:21 AM*
%MOMM*%
G01*
G04 APERTURE LIST*
%ADD10C,0.100000*%
%ADD11R,1.350000X1.350000*%
%ADD12C,1.350000*%
%ADD13C,2.032000*%
%ADD14R,2.032000X2.032000*%
%ADD15R,1.600000X1.600000*%
%ADD16O,1.600000X1.600000*%
%ADD17C,1.998980*%
%ADD18C,0.600000*%
%ADD19C,0.250000*%
G04 APERTURE END LIST*
D10*
D11*
X165000000Y-115000000D03*
D12*
X165000000Y-117000000D03*
D13*
X160080000Y-130620000D03*
X160080000Y-115380000D03*
D14*
X149920000Y-130620000D03*
D13*
X152460000Y-130620000D03*
X155000000Y-130620000D03*
X157540000Y-130620000D03*
X157540000Y-115380000D03*
X155000000Y-115380000D03*
X152460000Y-115380000D03*
X149920000Y-115380000D03*
X146080000Y-130620000D03*
X146080000Y-115380000D03*
D14*
X135920000Y-130620000D03*
D13*
X138460000Y-130620000D03*
X141000000Y-130620000D03*
X143540000Y-130620000D03*
X143540000Y-115380000D03*
X141000000Y-115380000D03*
X138460000Y-115380000D03*
X135920000Y-115380000D03*
D15*
X164000000Y-102000000D03*
D16*
X161460000Y-102000000D03*
X158920000Y-102000000D03*
X156380000Y-102000000D03*
X153840000Y-102000000D03*
X151300000Y-102000000D03*
X148760000Y-102000000D03*
X146220000Y-102000000D03*
X143680000Y-102000000D03*
X141140000Y-102000000D03*
X138600000Y-102000000D03*
X136060000Y-102000000D03*
X133520000Y-102000000D03*
X130980000Y-102000000D03*
X130980000Y-109620000D03*
X133520000Y-109620000D03*
X136060000Y-109620000D03*
X138600000Y-109620000D03*
X141140000Y-109620000D03*
X143680000Y-109620000D03*
X146220000Y-109620000D03*
X148760000Y-109620000D03*
X151300000Y-109620000D03*
X153840000Y-109620000D03*
X156380000Y-109620000D03*
X158920000Y-109620000D03*
X161460000Y-109620000D03*
X164000000Y-109620000D03*
D17*
X155000000Y-96000000D03*
X165160000Y-96000000D03*
X152000000Y-99000000D03*
X141840000Y-99000000D03*
X139000000Y-96000000D03*
X128840000Y-96000000D03*
D18*
X143000000Y-108000000D03*
X166000000Y-100000000D03*
X149000000Y-105000000D03*
X151000000Y-105000000D03*
X149000000Y-99000000D03*
D19*
X143000000Y-108000000D02*
X144000000Y-108000000D01*
X144000000Y-108000000D02*
X145000000Y-109000000D01*
X145000000Y-109000000D02*
X145000000Y-111840000D01*
X145000000Y-111840000D02*
X145160000Y-112000000D01*
X145160000Y-112000000D02*
X147000000Y-112000000D01*
X146080000Y-115380000D02*
X146080000Y-112920000D01*
X160080000Y-113080000D02*
X160080000Y-115380000D01*
X159000000Y-112000000D02*
X160080000Y-113080000D01*
X147000000Y-112000000D02*
X159000000Y-112000000D01*
X146080000Y-112920000D02*
X147000000Y-112000000D01*
X138460000Y-130620000D02*
X138460000Y-124460000D01*
X136060000Y-111940000D02*
X136060000Y-109620000D01*
X133000000Y-115000000D02*
X136060000Y-111940000D01*
X133000000Y-119000000D02*
X133000000Y-115000000D01*
X138460000Y-124460000D02*
X133000000Y-119000000D01*
X143540000Y-130620000D02*
X143540000Y-132460000D01*
X133520000Y-113480000D02*
X133520000Y-109620000D01*
X132000000Y-115000000D02*
X133520000Y-113480000D01*
X132000000Y-120000000D02*
X132000000Y-115000000D01*
X133000000Y-121000000D02*
X132000000Y-120000000D01*
X133000000Y-132000000D02*
X133000000Y-121000000D01*
X134000000Y-133000000D02*
X133000000Y-132000000D01*
X143000000Y-133000000D02*
X134000000Y-133000000D01*
X143540000Y-132460000D02*
X143000000Y-133000000D01*
X143540000Y-130620000D02*
X143540000Y-128460000D01*
X154920000Y-128000000D02*
X157540000Y-130620000D01*
X144000000Y-128000000D02*
X154920000Y-128000000D01*
X143540000Y-128460000D02*
X144000000Y-128000000D01*
X143540000Y-115380000D02*
X143540000Y-114540000D01*
X143540000Y-114540000D02*
X141140000Y-112140000D01*
X141140000Y-112140000D02*
X141140000Y-109620000D01*
X143540000Y-115380000D02*
X143540000Y-117540000D01*
X157540000Y-117460000D02*
X157540000Y-115380000D01*
X156000000Y-119000000D02*
X157540000Y-117460000D01*
X145000000Y-119000000D02*
X156000000Y-119000000D01*
X143540000Y-117540000D02*
X145000000Y-119000000D01*
X141000000Y-115380000D02*
X141000000Y-113000000D01*
X158920000Y-104080000D02*
X158920000Y-102000000D01*
X156000000Y-107000000D02*
X158920000Y-104080000D01*
X142000000Y-107000000D02*
X156000000Y-107000000D01*
X140000000Y-109000000D02*
X142000000Y-107000000D01*
X140000000Y-112000000D02*
X140000000Y-109000000D01*
X141000000Y-113000000D02*
X140000000Y-112000000D01*
X158000000Y-99000000D02*
X155000000Y-96000000D01*
X165000000Y-99000000D02*
X158000000Y-99000000D01*
X166000000Y-100000000D02*
X165000000Y-99000000D01*
X146220000Y-102000000D02*
X146220000Y-102220000D01*
X146220000Y-102220000D02*
X149000000Y-105000000D01*
X146220000Y-102000000D02*
X146000000Y-102000000D01*
X146000000Y-102000000D02*
X143000000Y-105000000D01*
X143000000Y-105000000D02*
X131000000Y-105000000D01*
X131000000Y-105000000D02*
X128840000Y-102840000D01*
X128840000Y-102840000D02*
X128840000Y-96000000D01*
X165000000Y-115000000D02*
X161000000Y-111000000D01*
X150000000Y-111000000D02*
X148760000Y-109760000D01*
X161000000Y-111000000D02*
X150000000Y-111000000D01*
X148760000Y-109760000D02*
X148760000Y-109620000D01*
X150000000Y-104000000D02*
X151000000Y-105000000D01*
X150000000Y-100000000D02*
X150000000Y-104000000D01*
X149000000Y-99000000D02*
X150000000Y-100000000D01*
M02*
